# xmcd CD database file
#
# Track frame offsets:
#	150
#	12164
#	24889
#	37940
#	48687
#	61419
#	81863
#	90796
#	100675
#	108782
#	126015
#	139750
#
# Disc length: 2048 seconds
#
# Revision: 0
# Processed by: cddbd v1.5.2PL0 Copyright (c) Steve Scherf et al.
# Submitted via: CDex 1.51
#
DISCID=8407fe0c
DTITLE=Kvarsax - Pieni kukkanen
DYEAR=2009
DGENRE=Jazz
TTITLE0=Down by the Riverside, Spiritual
TTITLE1=Ambiance Dixie
TTITLE2=The Sycamore, ragtime
TTITLE3=Valkovuokot, tango
TTITLE4=Pieni kukkanen - Petite Fleur
TTITLE5=Kotiviini - Summer Wine
TTITLE6=Tulta p‰in
TTITLE7=Hymy - Smile
TTITLE8=Kivikauden mies
TTITLE9=Kun h‰m‰rt‰‰ - Twilight Time
TTITLE10=Olen n‰hnyt Helga-neidin kylvyss‰
TTITLE11=Musta Pekka - Sing Sing Sing
EXTD=YEAR: 2009
EXTT0=
EXTT1=
EXTT2=
EXTT3=
EXTT4=
EXTT5=
EXTT6=
EXTT7=
EXTT8=
EXTT9=
EXTT10=
EXTT11=
PLAYORDER=
